STARTFONT 2.1
FONT -Fondu--Medium-R-Normal--13-120-75-75-P-60-MacRoman-1
SIZE 12 75 75
FONTBOUNDINGBOX 11 13 -1 -3
COMMENT Created by Fondu from a mac NFNT/FONT resource
STARTPROPERTIES 17
FOUNDRY "Fondu"
FAMILY_NAME ""
WEIGHT_NAME "Medium"
SLANT "R"
SETWIDTH_NAME "Normal"
ADD_STYLE_NAME ""
PIXEL_SIZE 13
POINT_SIZE 120
RESOLUTION_X 75
RESOLUTION_Y 75
SPACING "P"
AVERAGE_WIDTH 60
CHARSET_REGISTRY "MacRoman"
CHARSET_ENCODING "1"
FONT_ASCENT 10
FONT_DESCENT 3
FACE_NAME "nameless"
ENDPROPERTIES
CHARS 223
STARTCHAR space
ENCODING 32
SWIDTH 230 0
DWIDTH 3 0
BBX 0 0 0 -3
BITMAP
ENDCHAR
STARTCHAR exclam
ENCODING 33
SWIDTH 230 0
DWIDTH 3 0
BBX 2 8 0 0
BITMAP
C0
C0
C0
C0
C0
00
C0
C0
ENDCHAR
STARTCHAR quotedbl
ENCODING 34
SWIDTH 384 0
DWIDTH 5 0
BBX 5 3 0 5
BITMAP
D8
D8
D8
ENDCHAR
STARTCHAR numbersign
ENCODING 35
SWIDTH 384 0
DWIDTH 5 0
BBX 5 8 0 0
BITMAP
28
28
F8
50
50
F8
A0
A0
ENDCHAR
STARTCHAR dollar
ENCODING 36
SWIDTH 384 0
DWIDTH 5 0
BBX 5 10 0 -1
BITMAP
20
70
A8
A0
70
28
28
A8
70
20
ENDCHAR
STARTCHAR percent
ENCODING 37
SWIDTH 692 0
DWIDTH 9 0
BBX 9 8 0 0
BITMAP
6200
9400
9400
6800
0B00
1480
1480
2300
ENDCHAR
STARTCHAR ampersand
ENCODING 38
SWIDTH 538 0
DWIDTH 7 0
BBX 5 9 1 0
BITMAP
70
90
90
60
E8
B8
98
98
F8
ENDCHAR
STARTCHAR quotesingle
ENCODING 39
SWIDTH 153 0
DWIDTH 2 0
BBX 2 3 0 5
BITMAP
C0
C0
C0
ENDCHAR
STARTCHAR parenleft
ENCODING 40
SWIDTH 230 0
DWIDTH 3 0
BBX 3 10 0 -2
BITMAP
20
40
C0
C0
C0
C0
C0
C0
40
20
ENDCHAR
STARTCHAR parenright
ENCODING 41
SWIDTH 230 0
DWIDTH 3 0
BBX 3 10 0 -2
BITMAP
80
40
60
60
60
60
60
60
40
80
ENDCHAR
STARTCHAR asterisk
ENCODING 42
SWIDTH 307 0
DWIDTH 4 0
BBX 5 4 -1 5
BITMAP
A8
70
70
A8
ENDCHAR
STARTCHAR plus
ENCODING 43
SWIDTH 461 0
DWIDTH 6 0
BBX 5 5 0 0
BITMAP
20
20
F8
20
20
ENDCHAR
STARTCHAR comma
ENCODING 44
SWIDTH 230 0
DWIDTH 3 0
BBX 2 4 0 -2
BITMAP
C0
C0
40
80
ENDCHAR
STARTCHAR hyphen
ENCODING 45
SWIDTH 230 0
DWIDTH 3 0
BBX 3 2 0 2
BITMAP
E0
E0
ENDCHAR
STARTCHAR period
ENCODING 46
SWIDTH 230 0
DWIDTH 3 0
BBX 2 2 0 0
BITMAP
C0
C0
ENDCHAR
STARTCHAR slash
ENCODING 47
SWIDTH 230 0
DWIDTH 3 0
BBX 2 9 0 0
BITMAP
40
40
40
40
40
80
80
80
80
ENDCHAR
STARTCHAR zero
ENCODING 48
SWIDTH 384 0
DWIDTH 5 0
BBX 5 8 0 0
BITMAP
70
D8
D8
D8
D8
D8
D8
70
ENDCHAR
STARTCHAR one
ENCODING 49
SWIDTH 384 0
DWIDTH 5 0
BBX 3 8 1 0
BITMAP
20
E0
60
60
60
60
60
60
ENDCHAR
STARTCHAR two
ENCODING 50
SWIDTH 384 0
DWIDTH 5 0
BBX 5 8 0 0
BITMAP
70
98
18
30
60
40
F8
F8
ENDCHAR
STARTCHAR three
ENCODING 51
SWIDTH 384 0
DWIDTH 5 0
BBX 5 8 0 0
BITMAP
70
98
18
30
18
18
98
70
ENDCHAR
STARTCHAR four
ENCODING 52
SWIDTH 384 0
DWIDTH 5 0
BBX 5 8 0 0
BITMAP
30
30
70
70
B0
F8
30
30
ENDCHAR
STARTCHAR five
ENCODING 53
SWIDTH 384 0
DWIDTH 5 0
BBX 5 8 0 0
BITMAP
F8
F8
80
F0
18
18
98
70
ENDCHAR
STARTCHAR six
ENCODING 54
SWIDTH 384 0
DWIDTH 5 0
BBX 5 8 0 0
BITMAP
70
C8
C0
F0
D8
D8
D8
70
ENDCHAR
STARTCHAR seven
ENCODING 55
SWIDTH 384 0
DWIDTH 5 0
BBX 5 8 0 0
BITMAP
F8
F8
18
10
30
20
20
20
ENDCHAR
STARTCHAR eight
ENCODING 56
SWIDTH 384 0
DWIDTH 5 0
BBX 5 8 0 0
BITMAP
70
D8
D8
70
D8
D8
D8
70
ENDCHAR
STARTCHAR nine
ENCODING 57
SWIDTH 384 0
DWIDTH 5 0
BBX 5 8 0 0
BITMAP
70
D8
D8
D8
78
18
98
70
ENDCHAR
STARTCHAR colon
ENCODING 58
SWIDTH 230 0
DWIDTH 3 0
BBX 2 6 0 0
BITMAP
C0
C0
00
00
C0
C0
ENDCHAR
STARTCHAR semicolon
ENCODING 59
SWIDTH 230 0
DWIDTH 3 0
BBX 2 8 0 -2
BITMAP
C0
C0
00
00
C0
C0
40
80
ENDCHAR
STARTCHAR less
ENCODING 60
SWIDTH 461 0
DWIDTH 6 0
BBX 4 6 1 0
BITMAP
10
70
C0
C0
70
10
ENDCHAR
STARTCHAR equal
ENCODING 61
SWIDTH 461 0
DWIDTH 6 0
BBX 4 5 1 0
BITMAP
F0
F0
00
F0
F0
ENDCHAR
STARTCHAR greater
ENCODING 62
SWIDTH 461 0
DWIDTH 6 0
BBX 4 6 1 0
BITMAP
80
E0
30
30
E0
80
ENDCHAR
STARTCHAR question
ENCODING 63
SWIDTH 461 0
DWIDTH 6 0
BBX 4 9 1 0
BITMAP
60
B0
B0
30
60
60
00
60
60
ENDCHAR
STARTCHAR at
ENCODING 64
SWIDTH 769 0
DWIDTH 10 0
BBX 9 10 0 -1
BITMAP
1E00
2100
4080
8E80
9280
9280
9480
8B00
4000
3E00
ENDCHAR
STARTCHAR A
ENCODING 65
SWIDTH 538 0
DWIDTH 7 0
BBX 6 8 0 0
BITMAP
30
78
78
48
CC
FC
CC
CC
ENDCHAR
STARTCHAR B
ENCODING 66
SWIDTH 538 0
DWIDTH 7 0
BBX 6 8 0 0
BITMAP
F8
CC
CC
F8
CC
CC
CC
F8
ENDCHAR
STARTCHAR C
ENCODING 67
SWIDTH 538 0
DWIDTH 7 0
BBX 6 8 0 0
BITMAP
78
C4
C0
C0
C0
C0
C4
78
ENDCHAR
STARTCHAR D
ENCODING 68
SWIDTH 538 0
DWIDTH 7 0
BBX 6 8 0 0
BITMAP
F8
CC
CC
CC
CC
CC
CC
F8
ENDCHAR
STARTCHAR E
ENCODING 69
SWIDTH 538 0
DWIDTH 7 0
BBX 5 8 1 0
BITMAP
F8
C0
C0
F8
C0
C0
C0
F8
ENDCHAR
STARTCHAR F
ENCODING 70
SWIDTH 461 0
DWIDTH 6 0
BBX 4 8 1 0
BITMAP
F0
C0
C0
F0
C0
C0
C0
C0
ENDCHAR
STARTCHAR G
ENCODING 71
SWIDTH 615 0
DWIDTH 8 0
BBX 6 8 1 0
BITMAP
78
C4
C0
C0
DC
CC
CC
74
ENDCHAR
STARTCHAR H
ENCODING 72
SWIDTH 538 0
DWIDTH 7 0
BBX 6 8 0 0
BITMAP
CC
CC
CC
FC
CC
CC
CC
CC
ENDCHAR
STARTCHAR I
ENCODING 73
SWIDTH 230 0
DWIDTH 3 0
BBX 2 8 0 0
BITMAP
C0
C0
C0
C0
C0
C0
C0
C0
ENDCHAR
STARTCHAR J
ENCODING 74
SWIDTH 384 0
DWIDTH 5 0
BBX 4 8 0 0
BITMAP
30
30
30
30
30
B0
B0
60
ENDCHAR
STARTCHAR K
ENCODING 75
SWIDTH 538 0
DWIDTH 7 0
BBX 7 8 0 0
BITMAP
C6
CC
D8
F0
F0
D8
CC
C6
ENDCHAR
STARTCHAR L
ENCODING 76
SWIDTH 461 0
DWIDTH 6 0
BBX 5 8 0 0
BITMAP
C0
C0
C0
C0
C0
C0
C0
F8
ENDCHAR
STARTCHAR M
ENCODING 77
SWIDTH 615 0
DWIDTH 8 0
BBX 7 8 0 0
BITMAP
C6
C6
EE
EE
EE
EE
D6
D6
ENDCHAR
STARTCHAR N
ENCODING 78
SWIDTH 538 0
DWIDTH 7 0
BBX 6 8 0 0
BITMAP
84
C4
E4
F4
BC
9C
8C
84
ENDCHAR
STARTCHAR O
ENCODING 79
SWIDTH 615 0
DWIDTH 8 0
BBX 7 8 0 0
BITMAP
7C
C6
C6
C6
C6
C6
C6
7C
ENDCHAR
STARTCHAR P
ENCODING 80
SWIDTH 538 0
DWIDTH 7 0
BBX 6 8 0 0
BITMAP
F8
CC
CC
CC
F8
C0
C0
C0
ENDCHAR
STARTCHAR Q
ENCODING 81
SWIDTH 615 0
DWIDTH 8 0
BBX 7 10 0 -2
BITMAP
7C
C6
C6
C6
C6
C6
C6
7C
0C
06
ENDCHAR
STARTCHAR R
ENCODING 82
SWIDTH 538 0
DWIDTH 7 0
BBX 6 8 0 0
BITMAP
F8
CC
CC
CC
F8
F0
D8
CC
ENDCHAR
STARTCHAR S
ENCODING 83
SWIDTH 538 0
DWIDTH 7 0
BBX 6 8 0 0
BITMAP
78
C4
C0
78
0C
0C
8C
78
ENDCHAR
STARTCHAR T
ENCODING 84
SWIDTH 461 0
DWIDTH 6 0
BBX 6 8 0 0
BITMAP
FC
30
30
30
30
30
30
30
ENDCHAR
STARTCHAR U
ENCODING 85
SWIDTH 538 0
DWIDTH 7 0
BBX 6 8 0 0
BITMAP
CC
CC
CC
CC
CC
CC
CC
78
ENDCHAR
STARTCHAR V
ENCODING 86
SWIDTH 538 0
DWIDTH 7 0
BBX 7 8 0 0
BITMAP
C6
6C
6C
6C
38
38
10
10
ENDCHAR
STARTCHAR W
ENCODING 87
SWIDTH 692 0
DWIDTH 9 0
BBX 10 8 -1 0
BITMAP
CCC0
6D80
6D80
3F00
3300
3300
3300
3300
ENDCHAR
STARTCHAR X
ENCODING 88
SWIDTH 538 0
DWIDTH 7 0
BBX 5 8 1 0
BITMAP
D8
50
70
20
70
50
D8
D8
ENDCHAR
STARTCHAR Y
ENCODING 89
SWIDTH 538 0
DWIDTH 7 0
BBX 6 8 0 0
BITMAP
CC
CC
78
78
30
30
30
30
ENDCHAR
STARTCHAR Z
ENCODING 90
SWIDTH 461 0
DWIDTH 6 0
BBX 5 8 0 0
BITMAP
F8
18
30
20
60
C0
C0
F8
ENDCHAR
STARTCHAR bracketleft
ENCODING 91
SWIDTH 230 0
DWIDTH 3 0
BBX 3 10 0 -2
BITMAP
E0
C0
C0
C0
C0
C0
C0
C0
C0
E0
ENDCHAR
STARTCHAR backslash
ENCODING 92
SWIDTH 230 0
DWIDTH 3 0
BBX 2 8 0 0
BITMAP
80
80
80
80
40
40
40
40
ENDCHAR
STARTCHAR bracketright
ENCODING 93
SWIDTH 230 0
DWIDTH 3 0
BBX 3 10 0 -2
BITMAP
E0
60
60
60
60
60
60
60
60
E0
ENDCHAR
STARTCHAR asciicircum
ENCODING 94
SWIDTH 461 0
DWIDTH 6 0
BBX 4 5 1 3
BITMAP
60
60
F0
90
90
ENDCHAR
STARTCHAR underscore
ENCODING 95
SWIDTH 384 0
DWIDTH 5 0
BBX 5 1 0 -2
BITMAP
F8
ENDCHAR
STARTCHAR grave
ENCODING 96
SWIDTH 230 0
DWIDTH 3 0
BBX 2 2 0 7
BITMAP
80
40
ENDCHAR
STARTCHAR a
ENCODING 97
SWIDTH 384 0
DWIDTH 5 0
BBX 5 6 0 0
BITMAP
70
18
78
D8
D8
78
ENDCHAR
STARTCHAR b
ENCODING 98
SWIDTH 461 0
DWIDTH 6 0
BBX 5 9 0 0
BITMAP
C0
C0
C0
F0
D8
D8
D8
D8
F0
ENDCHAR
STARTCHAR c
ENCODING 99
SWIDTH 384 0
DWIDTH 5 0
BBX 5 6 0 0
BITMAP
70
C8
C0
C0
C8
70
ENDCHAR
STARTCHAR d
ENCODING 100
SWIDTH 461 0
DWIDTH 6 0
BBX 5 9 0 0
BITMAP
18
18
18
78
D8
D8
D8
D8
78
ENDCHAR
STARTCHAR e
ENCODING 101
SWIDTH 461 0
DWIDTH 6 0
BBX 5 6 0 0
BITMAP
70
D8
F8
C0
C8
70
ENDCHAR
STARTCHAR f
ENCODING 102
SWIDTH 230 0
DWIDTH 3 0
BBX 4 9 -1 0
BITMAP
30
60
F0
60
60
60
60
60
60
ENDCHAR
STARTCHAR g
ENCODING 103
SWIDTH 461 0
DWIDTH 6 0
BBX 5 9 0 -3
BITMAP
78
D8
D8
D8
D8
78
18
98
70
ENDCHAR
STARTCHAR h
ENCODING 104
SWIDTH 461 0
DWIDTH 6 0
BBX 5 9 0 0
BITMAP
C0
C0
C0
F0
D8
D8
D8
D8
D8
ENDCHAR
STARTCHAR i
ENCODING 105
SWIDTH 230 0
DWIDTH 3 0
BBX 2 9 0 0
BITMAP
C0
C0
00
C0
C0
C0
C0
C0
C0
ENDCHAR
STARTCHAR j
ENCODING 106
SWIDTH 230 0
DWIDTH 3 0
BBX 3 12 -1 -3
BITMAP
60
60
00
60
60
60
60
60
60
60
60
C0
ENDCHAR
STARTCHAR k
ENCODING 107
SWIDTH 384 0
DWIDTH 5 0
BBX 5 9 0 0
BITMAP
C0
C0
C0
D8
F0
E0
F0
D8
C8
ENDCHAR
STARTCHAR l
ENCODING 108
SWIDTH 230 0
DWIDTH 3 0
BBX 2 9 0 0
BITMAP
C0
C0
C0
C0
C0
C0
C0
C0
C0
ENDCHAR
STARTCHAR m
ENCODING 109
SWIDTH 692 0
DWIDTH 9 0
BBX 8 6 0 0
BITMAP
F6
DB
DB
DB
DB
DB
ENDCHAR
STARTCHAR n
ENCODING 110
SWIDTH 461 0
DWIDTH 6 0
BBX 5 6 0 0
BITMAP
F0
D8
D8
D8
D8
D8
ENDCHAR
STARTCHAR o
ENCODING 111
SWIDTH 461 0
DWIDTH 6 0
BBX 5 6 0 0
BITMAP
70
D8
D8
D8
D8
70
ENDCHAR
STARTCHAR p
ENCODING 112
SWIDTH 461 0
DWIDTH 6 0
BBX 5 9 0 -3
BITMAP
F0
D8
D8
D8
D8
F0
C0
C0
C0
ENDCHAR
STARTCHAR q
ENCODING 113
SWIDTH 461 0
DWIDTH 6 0
BBX 5 9 0 -3
BITMAP
78
D8
D8
D8
D8
78
18
18
18
ENDCHAR
STARTCHAR r
ENCODING 114
SWIDTH 307 0
DWIDTH 4 0
BBX 4 6 0 0
BITMAP
D0
E0
C0
C0
C0
C0
ENDCHAR
STARTCHAR s
ENCODING 115
SWIDTH 384 0
DWIDTH 5 0
BBX 4 6 0 0
BITMAP
70
C0
60
30
B0
60
ENDCHAR
STARTCHAR t
ENCODING 116
SWIDTH 230 0
DWIDTH 3 0
BBX 4 7 -1 0
BITMAP
60
F0
60
60
60
60
30
ENDCHAR
STARTCHAR u
ENCODING 117
SWIDTH 461 0
DWIDTH 6 0
BBX 5 6 0 0
BITMAP
D8
D8
D8
D8
D8
78
ENDCHAR
STARTCHAR v
ENCODING 118
SWIDTH 384 0
DWIDTH 5 0
BBX 6 6 -1 0
BITMAP
CC
48
78
30
30
30
ENDCHAR
STARTCHAR w
ENCODING 119
SWIDTH 615 0
DWIDTH 8 0
BBX 7 6 0 0
BITMAP
92
BA
EE
6C
6C
6C
ENDCHAR
STARTCHAR x
ENCODING 120
SWIDTH 384 0
DWIDTH 5 0
BBX 6 6 -1 0
BITMAP
CC
78
30
78
48
CC
ENDCHAR
STARTCHAR y
ENCODING 121
SWIDTH 384 0
DWIDTH 5 0
BBX 6 9 -1 -3
BITMAP
CC
CC
48
78
30
30
30
20
60
ENDCHAR
STARTCHAR z
ENCODING 122
SWIDTH 384 0
DWIDTH 5 0
BBX 5 6 0 0
BITMAP
F8
18
30
60
C0
F8
ENDCHAR
STARTCHAR braceleft
ENCODING 123
SWIDTH 307 0
DWIDTH 4 0
BBX 3 11 0 -2
BITMAP
20
40
40
40
40
80
40
40
40
40
20
ENDCHAR
STARTCHAR bar
ENCODING 124
SWIDTH 230 0
DWIDTH 3 0
BBX 1 11 1 -2
BITMAP
80
80
80
80
80
80
80
80
80
80
80
ENDCHAR
STARTCHAR braceright
ENCODING 125
SWIDTH 307 0
DWIDTH 4 0
BBX 3 11 0 -2
BITMAP
80
40
40
40
40
20
40
40
40
40
80
ENDCHAR
STARTCHAR asciitilde
ENCODING 126
SWIDTH 461 0
DWIDTH 6 0
BBX 6 2 0 2
BITMAP
64
98
ENDCHAR
STARTCHAR Adieresis
ENCODING 128
SWIDTH 538 0
DWIDTH 7 0
BBX 6 8 0 0
BITMAP
30
78
78
48
CC
FC
CC
CC
ENDCHAR
STARTCHAR Aring
ENCODING 129
SWIDTH 538 0
DWIDTH 7 0
BBX 6 8 0 0
BITMAP
F8
C0
C0
F8
CC
CC
CC
F8
ENDCHAR
STARTCHAR Ccedilla
ENCODING 130
SWIDTH 538 0
DWIDTH 7 0
BBX 6 8 0 0
BITMAP
F8
CC
CC
F8
CC
CC
CC
F8
ENDCHAR
STARTCHAR Eacute
ENCODING 131
SWIDTH 461 0
DWIDTH 6 0
BBX 5 8 0 0
BITMAP
F8
C0
C0
C0
C0
C0
C0
C0
ENDCHAR
STARTCHAR Ntilde
ENCODING 132
SWIDTH 538 0
DWIDTH 7 0
BBX 8 10 -1 -2
BITMAP
3E
36
36
36
36
66
66
FF
C3
C3
ENDCHAR
STARTCHAR Odieresis
ENCODING 133
SWIDTH 538 0
DWIDTH 7 0
BBX 5 8 1 0
BITMAP
F8
C0
C0
F8
C0
C0
C0
F8
ENDCHAR
STARTCHAR Udieresis
ENCODING 134
SWIDTH 846 0
DWIDTH 11 0
BBX 10 8 0 0
BITMAP
CCC0
6D80
2D00
3F00
2D00
6D80
CCC0
CCC0
ENDCHAR
STARTCHAR aacute
ENCODING 135
SWIDTH 538 0
DWIDTH 7 0
BBX 6 8 0 0
BITMAP
78
8C
0C
38
0C
0C
8C
78
ENDCHAR
STARTCHAR agrave
ENCODING 136
SWIDTH 538 0
DWIDTH 7 0
BBX 6 8 0 0
BITMAP
CC
DC
DC
FC
EC
EC
CC
CC
ENDCHAR
STARTCHAR acircumflex
ENCODING 137
SWIDTH 538 0
DWIDTH 7 0
BBX 6 10 0 0
BITMAP
48
30
CC
DC
DC
FC
EC
EC
CC
CC
ENDCHAR
STARTCHAR adieresis
ENCODING 138
SWIDTH 538 0
DWIDTH 7 0
BBX 7 8 0 0
BITMAP
C6
CC
D8
F0
F0
D8
CC
C6
ENDCHAR
STARTCHAR atilde
ENCODING 139
SWIDTH 538 0
DWIDTH 7 0
BBX 6 8 0 0
BITMAP
7C
6C
6C
6C
6C
6C
CC
CC
ENDCHAR
STARTCHAR aring
ENCODING 140
SWIDTH 615 0
DWIDTH 8 0
BBX 7 8 0 0
BITMAP
C6
C6
EE
EE
EE
EE
D6
D6
ENDCHAR
STARTCHAR ccedilla
ENCODING 141
SWIDTH 538 0
DWIDTH 7 0
BBX 6 8 0 0
BITMAP
CC
CC
CC
FC
CC
CC
CC
CC
ENDCHAR
STARTCHAR eacute
ENCODING 142
SWIDTH 615 0
DWIDTH 8 0
BBX 7 8 0 0
BITMAP
7C
C6
C6
C6
C6
C6
C6
7C
ENDCHAR
STARTCHAR egrave
ENCODING 143
SWIDTH 538 0
DWIDTH 7 0
BBX 6 8 0 0
BITMAP
FC
CC
CC
CC
CC
CC
CC
CC
ENDCHAR
STARTCHAR ecircumflex
ENCODING 144
SWIDTH 538 0
DWIDTH 7 0
BBX 6 8 0 0
BITMAP
F8
CC
CC
CC
F8
C0
C0
C0
ENDCHAR
STARTCHAR edieresis
ENCODING 145
SWIDTH 538 0
DWIDTH 7 0
BBX 6 8 0 0
BITMAP
78
C4
C0
C0
C0
C0
C4
78
ENDCHAR
STARTCHAR iacute
ENCODING 146
SWIDTH 461 0
DWIDTH 6 0
BBX 6 8 0 0
BITMAP
FC
30
30
30
30
30
30
30
ENDCHAR
STARTCHAR igrave
ENCODING 147
SWIDTH 538 0
DWIDTH 7 0
BBX 6 8 0 0
BITMAP
CC
CC
48
78
38
30
30
60
ENDCHAR
STARTCHAR icircumflex
ENCODING 148
SWIDTH 692 0
DWIDTH 9 0
BBX 8 8 0 0
BITMAP
18
7E
DB
DB
DB
DB
7E
18
ENDCHAR
STARTCHAR idieresis
ENCODING 149
SWIDTH 538 0
DWIDTH 7 0
BBX 5 8 1 0
BITMAP
D8
D8
70
20
70
70
D8
D8
ENDCHAR
STARTCHAR ntilde
ENCODING 150
SWIDTH 538 0
DWIDTH 7 0
BBX 7 10 0 -2
BITMAP
CC
CC
CC
CC
CC
CC
CC
FE
06
06
ENDCHAR
STARTCHAR oacute
ENCODING 151
SWIDTH 538 0
DWIDTH 7 0
BBX 6 8 0 0
BITMAP
CC
CC
CC
CC
7C
0C
0C
0C
ENDCHAR
STARTCHAR ograve
ENCODING 152
SWIDTH 846 0
DWIDTH 11 0
BBX 10 8 0 0
BITMAP
CCC0
CCC0
CCC0
CCC0
CCC0
CCC0
CCC0
FFC0
ENDCHAR
STARTCHAR ocircumflex
ENCODING 153
SWIDTH 846 0
DWIDTH 11 0
BBX 11 10 0 -2
BITMAP
CCC0
CCC0
CCC0
CCC0
CCC0
CCC0
CCC0
FFE0
0060
0060
ENDCHAR
STARTCHAR odieresis
ENCODING 154
SWIDTH 615 0
DWIDTH 8 0
BBX 8 8 0 0
BITMAP
F0
30
30
3E
33
33
33
3E
ENDCHAR
STARTCHAR otilde
ENCODING 155
SWIDTH 769 0
DWIDTH 10 0
BBX 9 8 0 0
BITMAP
C180
C180
C180
F980
CD80
CD80
CD80
F980
ENDCHAR
STARTCHAR uacute
ENCODING 156
SWIDTH 538 0
DWIDTH 7 0
BBX 6 8 0 0
BITMAP
C0
C0
C0
F8
CC
CC
CC
F8
ENDCHAR
STARTCHAR ugrave
ENCODING 157
SWIDTH 538 0
DWIDTH 7 0
BBX 6 8 0 0
BITMAP
78
8C
0C
3C
0C
0C
8C
78
ENDCHAR
STARTCHAR ucircumflex
ENCODING 158
SWIDTH 846 0
DWIDTH 11 0
BBX 9 8 1 0
BITMAP
CF00
D980
D980
F980
D980
D980
D980
CF00
ENDCHAR
STARTCHAR udieresis
ENCODING 159
SWIDTH 538 0
DWIDTH 7 0
BBX 6 8 0 0
BITMAP
7C
CC
CC
CC
7C
6C
CC
CC
ENDCHAR
STARTCHAR dagger
ENCODING 160
SWIDTH 384 0
DWIDTH 5 0
BBX 4 10 0 -2
BITMAP
60
60
F0
60
60
60
60
60
60
60
ENDCHAR
STARTCHAR degree
ENCODING 161
SWIDTH 307 0
DWIDTH 4 0
BBX 3 4 0 5
BITMAP
40
A0
A0
40
ENDCHAR
STARTCHAR cent
ENCODING 162
SWIDTH 461 0
DWIDTH 6 0
BBX 5 10 0 0
BITMAP
18
18
F8
C0
C0
C0
C0
C0
C0
C0
ENDCHAR
STARTCHAR sterling
ENCODING 163
SWIDTH 384 0
DWIDTH 5 0
BBX 5 9 0 0
BITMAP
70
C8
C8
C0
E0
40
40
F8
D8
ENDCHAR
STARTCHAR section
ENCODING 164
SWIDTH 384 0
DWIDTH 5 0
BBX 5 11 0 -2
BITMAP
30
48
60
F0
D8
D8
78
30
18
48
30
ENDCHAR
STARTCHAR bullet
ENCODING 165
SWIDTH 230 0
DWIDTH 3 0
BBX 3 3 0 2
BITMAP
E0
E0
E0
ENDCHAR
STARTCHAR paragraph
ENCODING 166
SWIDTH 384 0
DWIDTH 5 0
BBX 5 11 0 -3
BITMAP
78
E8
E8
E8
68
28
28
28
28
28
28
ENDCHAR
STARTCHAR germandbls
ENCODING 167
SWIDTH 230 0
DWIDTH 3 0
BBX 2 8 0 0
BITMAP
C0
C0
C0
C0
C0
C0
C0
C0
ENDCHAR
STARTCHAR registered
ENCODING 168
SWIDTH 769 0
DWIDTH 10 0
BBX 9 9 0 0
BITMAP
3E00
4100
9C80
9280
9C80
9480
9280
4100
3E00
ENDCHAR
STARTCHAR copyright
ENCODING 169
SWIDTH 769 0
DWIDTH 10 0
BBX 9 9 0 0
BITMAP
3E00
4100
9C80
A280
A080
A280
9C80
4100
3E00
ENDCHAR
STARTCHAR trademark
ENCODING 170
SWIDTH 769 0
DWIDTH 10 0
BBX 8 5 0 4
BITMAP
FB
5B
5B
55
55
ENDCHAR
STARTCHAR acute
ENCODING 171
SWIDTH 615 0
DWIDTH 8 0
BBX 8 8 0 0
BITMAP
FE
30
30
3E
33
33
33
36
ENDCHAR
STARTCHAR dieresis
ENCODING 172
SWIDTH 538 0
DWIDTH 7 0
BBX 6 12 0 -3
BITMAP
60
60
F8
60
78
6C
6C
6C
6C
0C
0C
18
ENDCHAR
STARTCHAR notequal
ENCODING 173
SWIDTH 461 0
DWIDTH 6 0
BBX 5 7 0 -1
BITMAP
10
F8
F8
20
F8
F8
40
ENDCHAR
STARTCHAR AE
ENCODING 174
SWIDTH 461 0
DWIDTH 6 0
BBX 5 10 0 0
BITMAP
10
20
F8
C0
C0
C0
C0
C0
C0
C0
ENDCHAR
STARTCHAR Oslash
ENCODING 175
SWIDTH 384 0
DWIDTH 5 0
BBX 4 9 0 0
BITMAP
20
40
00
F0
C0
C0
C0
C0
C0
ENDCHAR
STARTCHAR infinity
ENCODING 176
SWIDTH 692 0
DWIDTH 9 0
BBX 8 4 0 1
BITMAP
66
DB
DB
66
ENDCHAR
STARTCHAR plusminus
ENCODING 177
SWIDTH 461 0
DWIDTH 6 0
BBX 5 8 0 0
BITMAP
20
20
F8
F8
20
20
F8
F8
ENDCHAR
STARTCHAR lessequal
ENCODING 178
SWIDTH 461 0
DWIDTH 6 0
BBX 5 7 0 0
BITMAP
18
70
C0
70
18
00
F8
ENDCHAR
STARTCHAR greaterequal
ENCODING 179
SWIDTH 461 0
DWIDTH 6 0
BBX 5 7 0 0
BITMAP
C0
70
18
70
C0
00
F8
ENDCHAR
STARTCHAR yen
ENCODING 180
SWIDTH 230 0
DWIDTH 3 0
BBX 2 9 0 0
BITMAP
C0
C0
00
C0
C0
C0
C0
C0
C0
ENDCHAR
STARTCHAR mu
ENCODING 181
SWIDTH 461 0
DWIDTH 6 0
BBX 5 9 0 -3
BITMAP
D8
D8
D8
D8
D8
F8
C0
C0
C0
ENDCHAR
STARTCHAR partialdiff
ENCODING 182
SWIDTH 384 0
DWIDTH 5 0
BBX 4 8 0 0
BITMAP
10
10
F0
C0
C0
C0
C0
C0
ENDCHAR
STARTCHAR summation
ENCODING 183
SWIDTH 384 0
DWIDTH 5 0
BBX 4 8 0 0
BITMAP
30
30
30
30
30
B0
B0
60
ENDCHAR
STARTCHAR product
ENCODING 184
SWIDTH 538 0
DWIDTH 7 0
BBX 6 8 0 0
BITMAP
78
C4
C0
F0
C0
C0
C4
78
ENDCHAR
STARTCHAR pi
ENCODING 185
SWIDTH 384 0
DWIDTH 5 0
BBX 5 6 0 0
BITMAP
70
C8
E0
C0
C8
70
ENDCHAR
STARTCHAR integral
ENCODING 186
SWIDTH 230 0
DWIDTH 3 0
BBX 5 10 -1 0
BITMAP
D8
D8
60
60
60
60
60
60
60
60
ENDCHAR
STARTCHAR ordfeminine
ENCODING 187
SWIDTH 230 0
DWIDTH 3 0
BBX 5 9 -1 0
BITMAP
D8
D8
00
60
60
60
60
60
60
ENDCHAR
STARTCHAR ordmasculine
ENCODING 188
SWIDTH 769 0
DWIDTH 10 0
BBX 9 8 0 0
BITMAP
7C00
6C00
6C00
6F00
6D80
6D80
ED80
CF00
ENDCHAR
STARTCHAR Omega
ENCODING 189
SWIDTH 615 0
DWIDTH 8 0
BBX 8 6 0 0
BITMAP
78
58
5E
5B
5B
9E
ENDCHAR
STARTCHAR ae
ENCODING 190
SWIDTH 769 0
DWIDTH 10 0
BBX 10 8 0 0
BITMAP
CC00
CC00
CC00
FF80
CCC0
CCC0
CCC0
CF80
ENDCHAR
STARTCHAR oslash
ENCODING 191
SWIDTH 615 0
DWIDTH 8 0
BBX 8 6 0 0
BITMAP
D8
D8
FE
DB
DB
DE
ENDCHAR
STARTCHAR questiondown
ENCODING 192
SWIDTH 230 0
DWIDTH 3 0
BBX 3 12 -1 -3
BITMAP
60
60
00
60
60
60
60
60
60
60
60
C0
ENDCHAR
STARTCHAR exclamdown
ENCODING 193
SWIDTH 538 0
DWIDTH 7 0
BBX 6 8 0 0
BITMAP
78
C4
C0
78
0C
0C
8C
78
ENDCHAR
STARTCHAR logicalnot
ENCODING 194
SWIDTH 461 0
DWIDTH 6 0
BBX 4 3 1 1
BITMAP
F0
F0
10
ENDCHAR
STARTCHAR radical
ENCODING 195
SWIDTH 538 0
DWIDTH 7 0
BBX 6 10 0 0
BITMAP
04
04
08
48
C8
68
28
30
10
10
ENDCHAR
STARTCHAR florin
ENCODING 196
SWIDTH 384 0
DWIDTH 5 0
BBX 5 12 0 -3
BITMAP
18
10
30
78
30
20
20
20
20
60
60
C0
ENDCHAR
STARTCHAR approxequal
ENCODING 197
SWIDTH 461 0
DWIDTH 6 0
BBX 6 4 0 1
BITMAP
64
98
64
98
ENDCHAR
STARTCHAR Delta
ENCODING 198
SWIDTH 538 0
DWIDTH 7 0
BBX 6 8 0 0
BITMAP
10
10
30
28
48
48
84
FC
ENDCHAR
STARTCHAR guillemotleft
ENCODING 199
SWIDTH 384 0
DWIDTH 5 0
BBX 5 6 0 0
BITMAP
28
50
A0
A0
50
28
ENDCHAR
STARTCHAR guillemotright
ENCODING 200
SWIDTH 384 0
DWIDTH 5 0
BBX 5 6 0 0
BITMAP
A0
50
28
28
50
A0
ENDCHAR
STARTCHAR ellipsis
ENCODING 201
SWIDTH 769 0
DWIDTH 10 0
BBX 10 2 0 0
BITMAP
CCC0
CCC0
ENDCHAR
STARTCHAR nbspace
ENCODING 202
SWIDTH 230 0
DWIDTH 3 0
BBX 0 0 0 -3
BITMAP
ENDCHAR
STARTCHAR Agrave
ENCODING 203
SWIDTH 538 0
DWIDTH 7 0
BBX 7 8 0 0
BITMAP
FC
30
30
3C
36
36
36
36
ENDCHAR
STARTCHAR Atilde
ENCODING 204
SWIDTH 538 0
DWIDTH 7 0
BBX 6 9 0 0
BITMAP
60
60
F8
60
78
6C
6C
6C
6C
ENDCHAR
STARTCHAR Otilde
ENCODING 205
SWIDTH 538 0
DWIDTH 7 0
BBX 7 10 0 0
BITMAP
08
10
C6
CC
D8
F0
F0
D8
CC
C6
ENDCHAR
STARTCHAR OE
ENCODING 206
SWIDTH 384 0
DWIDTH 5 0
BBX 5 9 0 0
BITMAP
10
20
00
D8
F0
E0
F0
D0
D8
ENDCHAR
STARTCHAR oe
ENCODING 207
SWIDTH 384 0
DWIDTH 5 0
BBX 4 6 0 0
BITMAP
70
C0
60
30
B0
60
ENDCHAR
STARTCHAR endash
ENCODING 208
SWIDTH 384 0
DWIDTH 5 0
BBX 5 2 0 2
BITMAP
F8
F8
ENDCHAR
STARTCHAR emdash
ENCODING 209
SWIDTH 769 0
DWIDTH 10 0
BBX 9 2 0 2
BITMAP
FF80
FF80
ENDCHAR
STARTCHAR quotedblleft
ENCODING 210
SWIDTH 384 0
DWIDTH 5 0
BBX 5 4 0 5
BITMAP
48
90
D8
D8
ENDCHAR
STARTCHAR quotedblright
ENCODING 211
SWIDTH 384 0
DWIDTH 5 0
BBX 5 4 0 5
BITMAP
D8
D8
48
90
ENDCHAR
STARTCHAR quoteleft
ENCODING 212
SWIDTH 230 0
DWIDTH 3 0
BBX 2 4 0 5
BITMAP
40
80
C0
C0
ENDCHAR
STARTCHAR quoteright
ENCODING 213
SWIDTH 230 0
DWIDTH 3 0
BBX 2 4 0 5
BITMAP
C0
C0
40
80
ENDCHAR
STARTCHAR divide
ENCODING 214
SWIDTH 461 0
DWIDTH 6 0
BBX 6 8 0 -1
BITMAP
30
30
00
FC
FC
00
30
30
ENDCHAR
STARTCHAR lozenge
ENCODING 215
SWIDTH 384 0
DWIDTH 5 0
BBX 5 4 0 -2
BITMAP
D8
D8
48
90
ENDCHAR
STARTCHAR ydieresis
ENCODING 216
SWIDTH 538 0
DWIDTH 7 0
BBX 6 10 0 0
BITMAP
48
30
CC
CC
48
78
38
30
30
60
ENDCHAR
STARTCHAR Ydieresis
ENCODING 217
SWIDTH 384 0
DWIDTH 5 0
BBX 6 12 -1 -3
BITMAP
48
30
00
CC
CC
48
78
30
30
30
20
60
ENDCHAR
STARTCHAR fraction
ENCODING 218
SWIDTH 538 0
DWIDTH 7 0
BBX 6 10 0 -2
BITMAP
CC
CC
CC
CC
CC
CC
CC
FC
30
30
ENDCHAR
STARTCHAR currency
ENCODING 219
SWIDTH 461 0
DWIDTH 6 0
BBX 5 8 0 -2
BITMAP
D8
D8
D8
D8
D8
F8
20
20
ENDCHAR
STARTCHAR guilsinglleft
ENCODING 220
SWIDTH 923 0
DWIDTH 12 0
BBX 10 9 1 0
BITMAP
8800
C800
C800
E980
FA40
BA40
9980
9800
8BC0
ENDCHAR
STARTCHAR guilsinglright
ENCODING 221
SWIDTH 538 0
DWIDTH 7 0
BBX 5 10 1 0
BITMAP
50
00
F8
C0
C0
F8
C0
C0
C0
F8
ENDCHAR
STARTCHAR fi
ENCODING 222
SWIDTH 461 0
DWIDTH 6 0
BBX 5 8 0 0
BITMAP
50
00
70
D8
F8
C0
C8
70
ENDCHAR
STARTCHAR fl
ENCODING 223
SWIDTH 461 0
DWIDTH 6 0
BBX 5 6 0 0
BITMAP
78
D8
D8
78
58
98
ENDCHAR
STARTCHAR daggerdbl
ENCODING 224
SWIDTH 384 0
DWIDTH 5 0
BBX 5 6 0 0
BITMAP
70
18
78
D8
D8
78
ENDCHAR
STARTCHAR periodcentered
ENCODING 225
SWIDTH 461 0
DWIDTH 6 0
BBX 5 9 0 0
BITMAP
08
70
C0
F0
D8
D8
D8
D8
70
ENDCHAR
STARTCHAR quotesinglbase
ENCODING 226
SWIDTH 461 0
DWIDTH 6 0
BBX 5 6 0 0
BITMAP
F0
D8
F0
D8
D8
F0
ENDCHAR
STARTCHAR quotedblbase
ENCODING 227
SWIDTH 384 0
DWIDTH 5 0
BBX 4 6 0 0
BITMAP
F0
C0
C0
C0
C0
C0
ENDCHAR
STARTCHAR perthousand
ENCODING 228
SWIDTH 461 0
DWIDTH 6 0
BBX 6 8 0 -2
BITMAP
38
58
58
58
58
FC
CC
CC
ENDCHAR
STARTCHAR Acircumflex
ENCODING 229
SWIDTH 461 0
DWIDTH 6 0
BBX 5 6 0 0
BITMAP
70
D8
F8
C0
C8
70
ENDCHAR
STARTCHAR Ecircumflex
ENCODING 230
SWIDTH 615 0
DWIDTH 8 0
BBX 8 6 0 0
BITMAP
DB
5A
7E
5A
DB
99
ENDCHAR
STARTCHAR Aacute
ENCODING 231
SWIDTH 384 0
DWIDTH 5 0
BBX 5 6 0 0
BITMAP
70
98
30
18
98
70
ENDCHAR
STARTCHAR Edieresis
ENCODING 232
SWIDTH 461 0
DWIDTH 6 0
BBX 5 6 0 0
BITMAP
C8
D8
F8
F8
D8
98
ENDCHAR
STARTCHAR Egrave
ENCODING 233
SWIDTH 461 0
DWIDTH 6 0
BBX 5 9 0 0
BITMAP
48
30
00
C8
D8
F8
F8
D8
98
ENDCHAR
STARTCHAR Iacute
ENCODING 234
SWIDTH 384 0
DWIDTH 5 0
BBX 5 6 0 0
BITMAP
D8
F0
E0
F0
D0
D8
ENDCHAR
STARTCHAR Icircumflex
ENCODING 235
SWIDTH 461 0
DWIDTH 6 0
BBX 5 6 0 0
BITMAP
78
58
58
58
58
98
ENDCHAR
STARTCHAR Idieresis
ENCODING 236
SWIDTH 538 0
DWIDTH 7 0
BBX 7 6 0 0
BITMAP
C6
EE
EE
D6
D6
D6
ENDCHAR
STARTCHAR Igrave
ENCODING 237
SWIDTH 461 0
DWIDTH 6 0
BBX 5 6 0 0
BITMAP
D8
D8
F8
D8
D8
D8
ENDCHAR
STARTCHAR Oacute
ENCODING 238
SWIDTH 461 0
DWIDTH 6 0
BBX 5 6 0 0
BITMAP
70
D8
D8
D8
D8
70
ENDCHAR
STARTCHAR Ocircumflex
ENCODING 239
SWIDTH 461 0
DWIDTH 6 0
BBX 5 6 0 0
BITMAP
F8
D8
D8
D8
D8
D8
ENDCHAR
STARTCHAR apple
ENCODING 240
SWIDTH 461 0
DWIDTH 6 0
BBX 5 9 0 -3
BITMAP
F0
D8
D8
D8
D8
F0
C0
C0
C0
ENDCHAR
STARTCHAR Ograve
ENCODING 241
SWIDTH 384 0
DWIDTH 5 0
BBX 5 6 0 0
BITMAP
70
C8
C0
C0
C8
70
ENDCHAR
STARTCHAR Uacute
ENCODING 242
SWIDTH 384 0
DWIDTH 5 0
BBX 4 6 0 0
BITMAP
F0
60
60
60
60
60
ENDCHAR
STARTCHAR Ucircumflex
ENCODING 243
SWIDTH 384 0
DWIDTH 5 0
BBX 6 9 -1 -3
BITMAP
CC
CC
48
78
30
30
30
20
60
ENDCHAR
STARTCHAR Ugrave
ENCODING 244
SWIDTH 615 0
DWIDTH 8 0
BBX 8 12 0 -3
BITMAP
18
18
18
7E
DB
DB
DB
DB
7E
18
18
18
ENDCHAR
STARTCHAR dotlessi
ENCODING 245
SWIDTH 384 0
DWIDTH 5 0
BBX 6 6 -1 0
BITMAP
CC
78
30
78
48
CC
ENDCHAR
STARTCHAR circumflex
ENCODING 246
SWIDTH 461 0
DWIDTH 6 0
BBX 6 8 0 -2
BITMAP
D8
D8
D8
D8
D8
FC
0C
0C
ENDCHAR
STARTCHAR tilde
ENCODING 247
SWIDTH 461 0
DWIDTH 6 0
BBX 5 6 0 0
BITMAP
D8
D8
D8
78
18
18
ENDCHAR
STARTCHAR macron
ENCODING 248
SWIDTH 615 0
DWIDTH 8 0
BBX 8 6 0 0
BITMAP
DB
DB
DB
DB
DB
FF
ENDCHAR
STARTCHAR breve
ENCODING 249
SWIDTH 615 0
DWIDTH 8 0
BBX 9 8 0 -2
BITMAP
DB00
DB00
DB00
DB00
DB00
FF80
0180
0180
ENDCHAR
STARTCHAR dotaccent
ENCODING 250
SWIDTH 461 0
DWIDTH 6 0
BBX 6 6 0 0
BITMAP
E0
60
78
6C
6C
78
ENDCHAR
STARTCHAR ring
ENCODING 251
SWIDTH 615 0
DWIDTH 8 0
BBX 7 6 0 0
BITMAP
C6
C6
F6
DE
DE
F6
ENDCHAR
STARTCHAR cedilla
ENCODING 252
SWIDTH 384 0
DWIDTH 5 0
BBX 5 6 0 0
BITMAP
C0
C0
F0
D8
D8
F0
ENDCHAR
STARTCHAR hungarumlaut
ENCODING 253
SWIDTH 384 0
DWIDTH 5 0
BBX 5 6 0 0
BITMAP
70
98
38
18
98
70
ENDCHAR
STARTCHAR ogonek
ENCODING 254
SWIDTH 615 0
DWIDTH 8 0
BBX 8 6 0 0
BITMAP
CE
DB
FB
DB
DB
CE
ENDCHAR
STARTCHAR caron
ENCODING 255
SWIDTH 538 0
DWIDTH 7 0
BBX 7 8 0 0
BITMAP
3C
62
FC
60
F8
60
62
3C
ENDCHAR
ENDFONT
